<svg width="22" height="21" viewBox="0 0 22 21" fill="none" xmlns="http://www.w3.org/2000/svg">
<path d="M7.33333 7H4.88889V9.33333H7.33333V7Z" fill="#2E3A59"/>
<path d="M9.77778 7H12.2222V9.33333H9.77778V7Z" fill="#2E3A59"/>
<path d="M17.1111 7H14.6667V9.33333H17.1111V7Z" fill="#2E3A59"/>
<path d="M0 2.33333V21L5.86667 16.8C6.28933 16.4962 6.80427 16.3324 7.33333 16.3333H19.5556C20.9056 16.3333 22 15.2887 22 14V2.33333C22 1.04467 20.9056 0 19.5556 0H2.44444C1.09441 0 0 1.04467 0 2.33333ZM2.44444 16.3333V2.33333H19.5556V14H6.51933C5.9902 13.9986 5.47512 14.1625 5.05267 14.4667L2.44444 16.3333Z" fill="#2E3A59"/>
</svg>
